<svg version="1.1" id="Layer_1" xmlns="http://www.w3.org/2000/svg" xmlns:xlink="http://www.w3.org/1999/xlink" x="0px" y="0px"
	 width="100%" viewBox="0 0 860 290" enable-background="new 0 0 860 290" xml:space="preserve">
<path fill="#FFFFFF" opacity="1.000000" stroke="none" 
	d="
M563.000000,291.000000 
	C375.333374,291.000000 188.166763,291.000000 1.000100,291.000000 
	C1.000067,194.333405 1.000067,97.666801 1.000033,1.000152 
	C287.666534,1.000102 574.333069,1.000102 860.999634,1.000051 
	C860.999756,97.666504 860.999756,194.333008 860.999878,290.999756 
	C761.833313,291.000000 662.666687,291.000000 563.000000,291.000000 
M489.003632,237.544983 
	C491.558685,242.174042 494.849915,244.426300 500.759827,244.191681 
	C515.401978,243.610413 530.082642,244.007675 544.747864,243.989548 
	C546.131226,243.987839 547.514404,243.828690 549.519531,243.703949 
	C523.981323,211.280045 498.890930,179.424606 473.708618,147.452484 
	C498.000824,116.723465 522.097900,86.241302 546.812439,54.978062 
	C544.546997,54.978062 543.287720,54.978062 542.028442,54.978062 
	C527.029907,54.978062 512.029053,54.847549 497.035522,55.120338 
	C494.814636,55.160740 491.876953,56.526024 490.540985,58.257996 
	C475.272125,78.053139 460.258362,98.044914 445.156372,117.968941 
	C440.355194,124.303123 435.494202,130.591965 429.763458,138.072662 
	C429.763458,109.398132 429.763458,82.324272 429.763458,55.274437 
	C414.335205,55.274437 399.269714,55.274437 384.284485,55.274437 
	C384.284485,118.307014 384.284485,181.042816 384.284485,243.684540 
	C399.638306,243.684540 414.704956,243.684540 430.194946,243.684540 
	C430.194946,216.030746 430.194946,188.691193 430.194946,160.546112 
	C450.000122,186.514359 469.255951,211.762253 489.003632,237.544983 
M202.858826,79.737511 
	C189.701843,62.509548 171.406799,55.615597 150.622849,55.137463 
	C125.137779,54.551186 99.629250,54.985256 74.130859,54.978294 
	C72.523468,54.977856 70.916084,54.978233 69.276833,54.978233 
	C69.276833,118.240593 69.276833,180.974792 69.276833,243.733139 
	C84.605690,243.733139 99.675171,243.733139 115.141708,243.733139 
	C115.141708,221.061432 115.141708,198.654312 115.141708,176.000610 
	C121.345490,176.000610 127.163399,176.226639 132.957428,175.950851 
	C143.213760,175.462677 153.619446,175.605896 163.675873,173.846130 
	C214.745514,164.909470 223.858444,111.467857 202.858826,79.737511 
M326.500000,54.977016 
	C297.080261,54.977016 267.660522,54.977016 238.244019,54.977016 
	C238.244019,118.255486 238.244019,180.978409 238.244019,243.775055 
	C276.728485,243.775055 314.965302,243.775055 353.266418,243.775055 
	C353.266418,231.483353 353.266418,219.422165 353.266418,206.986191 
	C329.966949,206.986191 307.038452,206.986191 284.110352,206.986191 
	C284.110352,192.883469 284.110352,179.163681 284.110352,164.956497 
	C304.664093,164.956497 324.889923,164.956497 344.964661,164.956497 
	C344.964661,153.059677 344.964661,141.656860 344.964661,129.821991 
	C324.430115,129.821991 304.190125,129.821991 284.222626,129.821991 
	C284.222626,116.661377 284.222626,103.943588 284.222626,90.811012 
	C307.562469,90.811012 330.458405,90.811012 353.303711,90.811012 
	C353.303711,78.646049 353.303711,66.915253 353.303711,54.977016 
	C344.478729,54.977016 335.989380,54.977016 326.500000,54.977016 
M719.063599,74.495651 
	C719.063599,79.586029 719.063599,84.676399 719.063599,90.223419 
	C728.487122,90.223419 737.216003,90.223419 746.271362,90.223419 
	C746.271362,141.747223 746.271362,192.790283 746.271362,243.684097 
	C762.353088,243.684097 778.080994,243.684097 793.715698,243.684097 
	C793.715698,178.003784 793.715698,112.640045 793.715698,47.297386 
	C768.736145,47.297386 744.022827,47.297386 719.063599,47.297386 
	C719.063599,56.227802 719.063599,64.862656 719.063599,74.495651 
M688.003601,139.544647 
	C688.003601,136.457047 688.003601,133.369431 688.003601,130.503571 
	C648.062134,130.503571 608.844299,130.503571 569.438965,130.503571 
	C569.438965,143.148575 569.438965,155.397858 569.438965,167.780609 
	C609.055847,167.780609 648.424622,167.780609 688.003601,167.780609 
	C688.003601,158.486435 688.003601,149.508743 688.003601,139.544647 
z"/>
<path fill="#010101" opacity="1.000000" stroke="none" 
	d="
M488.757690,237.277557 
	C469.255951,211.762253 450.000122,186.514359 430.194946,160.546112 
	C430.194946,188.691193 430.194946,216.030746 430.194946,243.684540 
	C414.704956,243.684540 399.638306,243.684540 384.284485,243.684540 
	C384.284485,181.042816 384.284485,118.307014 384.284485,55.274437 
	C399.269714,55.274437 414.335205,55.274437 429.763458,55.274437 
	C429.763458,82.324272 429.763458,109.398132 429.763458,138.072662 
	C435.494202,130.591965 440.355194,124.303123 445.156372,117.968941 
	C460.258362,98.044914 475.272125,78.053139 490.540985,58.257996 
	C491.876953,56.526024 494.814636,55.160740 497.035522,55.120338 
	C512.029053,54.847549 527.029907,54.978062 542.028442,54.978062 
	C543.287720,54.978062 544.546997,54.978062 546.812439,54.978062 
	C522.097900,86.241302 498.000824,116.723465 473.708618,147.452484 
	C498.890930,179.424606 523.981323,211.280045 549.519531,243.703949 
	C547.514404,243.828690 546.131226,243.987839 544.747864,243.989548 
	C530.082642,244.007675 515.401978,243.610413 500.759827,244.191681 
	C494.849915,244.426300 491.558685,242.174042 488.757690,237.277557 
z"/>
<path fill="#000001" opacity="1.000000" stroke="none" 
	d="
M202.984116,80.078171 
	C223.858444,111.467857 214.745514,164.909470 163.675873,173.846130 
	C153.619446,175.605896 143.213760,175.462677 132.957428,175.950851 
	C127.163399,176.226639 121.345490,176.000610 115.141708,176.000610 
	C115.141708,198.654312 115.141708,221.061432 115.141708,243.733139 
	C99.675171,243.733139 84.605690,243.733139 69.276833,243.733139 
	C69.276833,180.974792 69.276833,118.240593 69.276833,54.978233 
	C70.916084,54.978233 72.523468,54.977856 74.130859,54.978294 
	C99.629250,54.985256 125.137779,54.551186 150.622849,55.137463 
	C171.406799,55.615597 189.701843,62.509548 202.984116,80.078171 
M114.997749,96.600342 
	C114.997749,110.829361 114.997749,125.058372 114.997749,139.477768 
	C116.807404,139.585693 117.946007,139.717194 119.083893,139.711182 
	C126.735649,139.670700 134.436279,140.132492 142.028870,139.432037 
	C158.720169,137.892197 164.192520,133.436768 166.577942,119.115387 
	C168.257553,109.031525 164.222275,95.003601 150.502914,93.182556 
	C139.396469,91.708351 128.028183,92.155998 116.772606,92.002602 
	C116.197548,91.994751 115.590111,94.362274 114.997749,96.600342 
z"/>
<path fill="#010101" opacity="1.000000" stroke="none" 
	d="
M327.000000,54.977016 
	C335.989380,54.977016 344.478729,54.977016 353.303711,54.977016 
	C353.303711,66.915253 353.303711,78.646049 353.303711,90.811012 
	C330.458405,90.811012 307.562469,90.811012 284.222626,90.811012 
	C284.222626,103.943588 284.222626,116.661377 284.222626,129.821991 
	C304.190125,129.821991 324.430115,129.821991 344.964661,129.821991 
	C344.964661,141.656860 344.964661,153.059677 344.964661,164.956497 
	C324.889923,164.956497 304.664093,164.956497 284.110352,164.956497 
	C284.110352,179.163681 284.110352,192.883469 284.110352,206.986191 
	C307.038452,206.986191 329.966949,206.986191 353.266418,206.986191 
	C353.266418,219.422165 353.266418,231.483353 353.266418,243.775055 
	C314.965302,243.775055 276.728485,243.775055 238.244019,243.775055 
	C238.244019,180.978409 238.244019,118.255486 238.244019,54.977016 
	C267.660522,54.977016 297.080261,54.977016 327.000000,54.977016 
z"/>
<path fill="#000000" opacity="1.000000" stroke="none" 
	d="
M719.063599,73.996582 
	C719.063599,64.862656 719.063599,56.227802 719.063599,47.297386 
	C744.022827,47.297386 768.736145,47.297386 793.715698,47.297386 
	C793.715698,112.640045 793.715698,178.003784 793.715698,243.684097 
	C778.080994,243.684097 762.353088,243.684097 746.271362,243.684097 
	C746.271362,192.790283 746.271362,141.747223 746.271362,90.223419 
	C737.216003,90.223419 728.487122,90.223419 719.063599,90.223419 
	C719.063599,84.676399 719.063599,79.586029 719.063599,73.996582 
z"/>
<path fill="#020202" opacity="1.000000" stroke="none" 
	d="
M688.003601,140.037857 
	C688.003601,149.508743 688.003601,158.486435 688.003601,167.780609 
	C648.424622,167.780609 609.055847,167.780609 569.438965,167.780609 
	C569.438965,155.397858 569.438965,143.148575 569.438965,130.503571 
	C608.844299,130.503571 648.062134,130.503571 688.003601,130.503571 
	C688.003601,133.369431 688.003601,136.457047 688.003601,140.037857 
z"/>
<path fill="#FDFDFD" opacity="1.000000" stroke="none" 
	d="
M114.997749,96.112099 
	C115.590111,94.362274 116.197548,91.994751 116.772606,92.002602 
	C128.028183,92.155998 139.396469,91.708351 150.502914,93.182556 
	C164.222275,95.003601 168.257553,109.031525 166.577942,119.115387 
	C164.192520,133.436768 158.720169,137.892197 142.028870,139.432037 
	C134.436279,140.132492 126.735649,139.670700 119.083893,139.711182 
	C117.946007,139.717194 116.807404,139.585693 114.997749,139.477768 
	C114.997749,125.058372 114.997749,110.829361 114.997749,96.112099 
z"/>
</svg>