<svg version="1.1" id="Layer_1" xmlns="http://www.w3.org/2000/svg" xmlns:xlink="http://www.w3.org/1999/xlink" x="0px" y="0px"
	 width="100%" viewBox="0 0 824 324" enable-background="new 0 0 824 324" xml:space="preserve">
<path fill="#FFFFFF" opacity="1.000000" stroke="none" 
	d="
M649.000000,325.000000 
	C432.666656,325.000000 216.833328,325.000000 1.000000,325.000000 
	C1.000000,217.000000 1.000000,109.000000 1.000000,1.000000 
	C275.666656,1.000000 550.333313,1.000000 825.000000,1.000000 
	C825.000000,109.000000 825.000000,217.000000 825.000000,325.000000 
	C766.500000,325.000000 708.000000,325.000000 649.000000,325.000000 
M671.480286,266.025146 
	C659.968384,251.515137 648.480286,236.986176 636.939087,222.499451 
	C618.387024,199.212479 599.773132,175.974548 581.326904,152.604233 
	C580.599731,151.682968 580.692566,149.049591 581.476624,148.160339 
	C593.134094,134.939072 604.922668,121.832092 616.780640,108.789307 
	C634.796570,88.973267 652.910034,69.245934 670.937744,49.440605 
	C675.672058,44.239479 680.243042,38.889721 685.423767,33.000343 
	C667.186523,33.000343 649.901001,33.093716 632.618286,32.914867 
	C629.481689,32.882412 627.391235,33.835976 625.355896,36.087383 
	C614.534790,48.057003 603.567871,59.894615 592.712280,71.833260 
	C580.850952,84.877968 569.088867,98.012970 557.219910,111.050644 
	C550.145813,118.821251 542.949280,126.480415 534.959656,135.105225 
	C534.959656,100.319763 534.959656,66.792847 534.959656,33.263542 
	C519.404541,33.263542 504.335205,33.263542 489.244507,33.263542 
	C489.244507,117.583282 489.244507,201.639587 489.244507,285.754578 
	C504.560333,285.754578 519.629517,285.754578 535.000793,285.754578 
	C535.000793,283.879028 535.000793,282.245483 535.000793,280.611938 
	C535.000793,254.951874 534.981873,229.291779 535.043457,203.631866 
	C535.047546,201.920929 535.109070,199.746368 536.088440,198.581818 
	C540.325989,193.542938 544.914856,188.799561 549.430176,183.889725 
	C550.157715,184.649994 550.665222,185.094315 551.071533,185.617249 
	C576.216980,217.979065 601.333252,250.363647 626.558594,282.663025 
	C627.729675,284.162567 629.858643,285.835541 631.561218,285.856903 
	C649.842529,286.086639 668.127747,285.999939 687.079163,285.999939 
	C681.794495,279.196411 676.883118,272.873383 671.480286,266.025146 
M95.048157,228.500000 
	C95.048157,216.417679 95.048157,204.335358 95.048157,192.001877 
	C112.638062,192.001877 129.468658,192.492355 146.253967,191.831955 
	C157.724075,191.380676 169.392548,190.419037 180.513290,187.763306 
	C205.871597,181.707535 223.546616,166.350708 230.669388,140.721878 
	C235.846237,122.094788 235.595322,103.102898 230.627365,84.452400 
	C225.377106,64.742104 213.229614,50.448051 194.462845,42.102329 
	C179.159821,35.296947 162.860992,33.217075 146.353546,33.078537 
	C115.202972,32.817112 84.048653,32.997620 52.895905,33.013126 
	C51.636452,33.013756 50.377102,33.204994 49.320953,33.290894 
	C49.320953,117.719330 49.320953,201.762726 49.320953,285.707550 
	C64.701302,285.707550 79.774689,285.707550 95.048157,285.707550 
	C95.048157,266.776917 95.048157,248.138458 95.048157,228.500000 
M275.922241,73.499985 
	C275.922241,144.254822 275.922241,215.009659 275.922241,285.620636 
	C330.222015,285.620636 383.936951,285.620636 437.560303,285.620636 
	C437.560303,272.971008 437.560303,260.702423 437.560303,247.909058 
	C398.900543,247.909058 360.516785,247.909058 322.283539,247.909058 
	C322.283539,224.307053 322.283539,201.235336 322.283539,177.773682 
	C354.673065,177.773682 386.749176,177.773682 418.699097,177.773682 
	C418.699097,164.972946 418.699097,152.568573 418.699097,139.782349 
	C386.308075,139.782349 354.230194,139.782349 322.280396,139.782349 
	C322.280396,116.655510 322.280396,93.919037 322.280396,70.791580 
	C360.331665,70.791580 398.072540,70.791580 435.693939,70.791580 
	C435.693939,57.988426 435.693939,45.582272 435.693939,33.284355 
	C382.305450,33.284355 329.224182,33.284355 275.922241,33.284355 
	C275.922241,46.545025 275.922241,59.522503 275.922241,73.499985 
M727.957275,284.303131 
	C728.563171,284.867554 729.166077,285.920990 729.775452,285.924805 
	C744.390991,286.016815 759.007202,285.996429 773.754089,285.996429 
	C773.754089,201.487381 773.754089,117.417900 773.754089,33.227730 
	C758.448059,33.227730 743.372803,33.227730 727.952759,33.227730 
	C727.952759,116.747543 727.952759,200.040665 727.957275,284.303131 
z"/>
<path fill="#020202" opacity="1.000000" stroke="none" 
	d="
M671.725952,266.287750 
	C676.883118,272.873383 681.794495,279.196411 687.079163,285.999939 
	C668.127747,285.999939 649.842529,286.086639 631.561218,285.856903 
	C629.858643,285.835541 627.729675,284.162567 626.558594,282.663025 
	C601.333252,250.363647 576.216980,217.979065 551.071533,185.617249 
	C550.665222,185.094315 550.157715,184.649994 549.430176,183.889725 
	C544.914856,188.799561 540.325989,193.542938 536.088440,198.581818 
	C535.109070,199.746368 535.047546,201.920929 535.043457,203.631866 
	C534.981873,229.291779 535.000793,254.951874 535.000793,280.611938 
	C535.000793,282.245483 535.000793,283.879028 535.000793,285.754578 
	C519.629517,285.754578 504.560333,285.754578 489.244507,285.754578 
	C489.244507,201.639587 489.244507,117.583282 489.244507,33.263542 
	C504.335205,33.263542 519.404541,33.263542 534.959656,33.263542 
	C534.959656,66.792847 534.959656,100.319763 534.959656,135.105225 
	C542.949280,126.480415 550.145813,118.821251 557.219910,111.050644 
	C569.088867,98.012970 580.850952,84.877968 592.712280,71.833260 
	C603.567871,59.894615 614.534790,48.057003 625.355896,36.087383 
	C627.391235,33.835976 629.481689,32.882412 632.618286,32.914867 
	C649.901001,33.093716 667.186523,33.000343 685.423767,33.000343 
	C680.243042,38.889721 675.672058,44.239479 670.937744,49.440605 
	C652.910034,69.245934 634.796570,88.973267 616.780640,108.789307 
	C604.922668,121.832092 593.134094,134.939072 581.476624,148.160339 
	C580.692566,149.049591 580.599731,151.682968 581.326904,152.604233 
	C599.773132,175.974548 618.387024,199.212479 636.939087,222.499451 
	C648.480286,236.986176 659.968384,251.515137 671.725952,266.287750 
z"/>
<path fill="#020202" opacity="1.000000" stroke="none" 
	d="
M95.048157,229.000000 
	C95.048157,248.138458 95.048157,266.776917 95.048157,285.707550 
	C79.774689,285.707550 64.701302,285.707550 49.320953,285.707550 
	C49.320953,201.762726 49.320953,117.719330 49.320953,33.290894 
	C50.377102,33.204994 51.636452,33.013756 52.895905,33.013126 
	C84.048653,32.997620 115.202972,32.817112 146.353546,33.078537 
	C162.860992,33.217075 179.159821,35.296947 194.462845,42.102329 
	C213.229614,50.448051 225.377106,64.742104 230.627365,84.452400 
	C235.595322,103.102898 235.846237,122.094788 230.669388,140.721878 
	C223.546616,166.350708 205.871597,181.707535 180.513290,187.763306 
	C169.392548,190.419037 157.724075,191.380676 146.253967,191.831955 
	C129.468658,192.492355 112.638062,192.001877 95.048157,192.001877 
	C95.048157,204.335358 95.048157,216.417679 95.048157,229.000000 
M95.047546,78.602364 
	C95.047546,103.336861 95.047546,128.071365 95.047546,152.985870 
	C114.200157,152.985870 132.683334,153.360565 151.139786,152.820953 
	C159.804138,152.567627 167.975113,149.901672 175.336960,144.437775 
	C189.249512,134.112015 189.952530,104.699593 183.445648,91.020874 
	C177.390289,78.291328 165.843353,73.910210 152.827133,73.119316 
	C142.205597,72.473930 131.520370,72.859085 120.863266,72.822113 
	C112.412605,72.792793 103.961754,72.816208 95.047546,72.816208 
	C95.047546,74.729767 95.047546,76.177704 95.047546,78.602364 
z"/>
<path fill="#020202" opacity="1.000000" stroke="none" 
	d="
M275.922241,72.999985 
	C275.922241,59.522503 275.922241,46.545025 275.922241,33.284355 
	C329.224182,33.284355 382.305450,33.284355 435.693939,33.284355 
	C435.693939,45.582272 435.693939,57.988426 435.693939,70.791580 
	C398.072540,70.791580 360.331665,70.791580 322.280396,70.791580 
	C322.280396,93.919037 322.280396,116.655510 322.280396,139.782349 
	C354.230194,139.782349 386.308075,139.782349 418.699097,139.782349 
	C418.699097,152.568573 418.699097,164.972946 418.699097,177.773682 
	C386.749176,177.773682 354.673065,177.773682 322.283539,177.773682 
	C322.283539,201.235336 322.283539,224.307053 322.283539,247.909058 
	C360.516785,247.909058 398.900543,247.909058 437.560303,247.909058 
	C437.560303,260.702423 437.560303,272.971008 437.560303,285.620636 
	C383.936951,285.620636 330.222015,285.620636 275.922241,285.620636 
	C275.922241,215.009659 275.922241,144.254822 275.922241,72.999985 
z"/>
<path fill="#020202" opacity="1.000000" stroke="none" 
	d="
M727.955017,283.818481 
	C727.952759,200.040665 727.952759,116.747543 727.952759,33.227730 
	C743.372803,33.227730 758.448059,33.227730 773.754089,33.227730 
	C773.754089,117.417900 773.754089,201.487381 773.754089,285.996429 
	C759.007202,285.996429 744.390991,286.016815 729.775452,285.924805 
	C729.166077,285.920990 728.563171,284.867554 727.955017,283.818481 
z"/>
<path fill="#FFFFFF" opacity="1.000000" stroke="none" 
	d="
M95.047546,78.114006 
	C95.047546,76.177704 95.047546,74.729767 95.047546,72.816208 
	C103.961754,72.816208 112.412605,72.792793 120.863266,72.822113 
	C131.520370,72.859085 142.205597,72.473930 152.827133,73.119316 
	C165.843353,73.910210 177.390289,78.291328 183.445648,91.020874 
	C189.952530,104.699593 189.249512,134.112015 175.336960,144.437775 
	C167.975113,149.901672 159.804138,152.567627 151.139786,152.820953 
	C132.683334,153.360565 114.200157,152.985870 95.047546,152.985870 
	C95.047546,128.071365 95.047546,103.336861 95.047546,78.114006 
z"/>
</svg>