<svg width="686.177" height="128" viewBox="0 0 686.177 128" fill="none" xmlns="http://www.w3.org/2000/svg"><path x="8" y="46" width="724" height="108" fill="transparent" d="M6.481 37.266H593.012V124.759H6.481V37.266z"/><path d="M8.749 121.519V40.554h21.987V121.519H8.749Zm57.208 -80.855 0.83 1.218c-0.664 2.733 -1.531 6 -2.603 9.803a283.867 283.867 0 0 1 -3.488 11.353c-1.218 3.803 -2.455 7.106 -3.71 9.913H41.59c0.554 -2.584 1.089 -5.28 1.606 -8.085 0.554 -2.844 1.071 -5.686 1.551 -8.529 0.48 -2.844 0.905 -5.593 1.274 -8.251 0.405 -2.695 0.738 -5.169 0.996 -7.421h18.94ZM111.922 121.519l-16.558 -58.315h-0.498c0.147 1.513 0.295 3.562 0.442 6.147 0.185 2.584 0.351 5.371 0.499 8.362 0.147 2.99 0.221 5.87 0.221 8.639V121.519H76.645V40.554h29.13l16.891 57.484h0.443l16.558 -57.484h29.186V121.519h-20.103v-35.498c0 -2.548 0.037 -5.28 0.111 -8.197 0.111 -2.953 0.221 -5.722 0.332 -8.306 0.147 -2.622 0.277 -4.689 0.388 -6.203h-0.499L132.745 121.519h-20.823Zm156.781 -24.589c0 4.394 -1.108 8.565 -3.323 12.516 -2.215 3.913 -5.667 7.089 -10.356 9.525 -4.652 2.437 -10.67 3.655 -18.054 3.655 -3.693 0 -6.941 -0.166 -9.747 -0.498 -2.769 -0.332 -5.354 -0.868 -7.754 -1.606 -2.4 -0.776 -4.892 -1.773 -7.476 -2.991v-19.493c4.393 2.215 8.824 3.913 13.291 5.095 4.467 1.144 8.51 1.717 12.128 1.717 2.178 0 3.95 -0.258 5.316 -0.775 1.403 -0.517 2.437 -1.218 3.101 -2.105 0.665 -0.923 0.997 -1.975 0.997 -3.156 0 -1.403 -0.499 -2.584 -1.495 -3.544 -0.96 -0.997 -2.511 -2.031 -4.652 -3.101 -2.141 -1.071 -4.966 -2.4 -8.473 -3.987 -2.991 -1.403 -5.704 -2.843 -8.141 -4.32 -2.4 -1.477 -4.467 -3.157 -6.202 -5.04 -1.699 -1.92 -3.009 -4.154 -3.932 -6.701 -0.923 -2.547 -1.385 -5.556 -1.385 -9.026 0 -5.206 1.274 -9.562 3.821 -13.07 2.584 -3.544 6.166 -6.202 10.744 -7.975 4.614 -1.772 9.931 -2.658 15.949 -2.658 5.28 0 10.024 0.591 14.233 1.773 4.246 1.181 8.049 2.528 11.408 4.043l-6.701 16.891c-3.471 -1.588 -6.885 -2.844 -10.245 -3.766 -3.36 -0.96 -6.479 -1.44 -9.359 -1.44 -1.883 0 -3.433 0.24 -4.652 0.719 -1.182 0.443 -2.067 1.053 -2.658 1.828 -0.554 0.775 -0.831 1.661 -0.831 2.658 0 1.256 0.48 2.382 1.44 3.378 0.996 0.996 2.639 2.086 4.928 3.268 2.327 1.144 5.483 2.639 9.47 4.486 3.95 1.772 7.31 3.692 10.079 5.759 2.769 2.031 4.874 4.486 6.313 7.366 1.477 2.843 2.216 6.368 2.216 10.577Zm88.275 -16.004c0 6.239 -0.757 11.925 -2.271 17.056 -1.477 5.095 -3.803 9.489 -6.978 13.181 -3.176 3.692 -7.255 6.534 -12.239 8.528 -4.984 1.957 -10.946 2.935 -17.888 2.935 -6.793 0 -12.682 -0.978 -17.666 -2.935 -4.947 -1.994 -9.026 -4.818 -12.239 -8.473 -3.212 -3.692 -5.593 -8.104 -7.144 -13.236 -1.551 -5.131 -2.326 -10.854 -2.326 -17.167 0 -8.417 1.384 -15.728 4.153 -21.93 2.806 -6.24 7.126 -11.058 12.96 -14.454 5.833 -3.434 13.291 -5.151 22.373 -5.151 9.23 0 16.724 1.717 22.484 5.151 5.796 3.433 10.042 8.27 12.737 14.509s4.043 13.568 4.043 21.986Zm-55.712 0c0 4.873 0.554 9.064 1.662 12.571 1.107 3.508 2.861 6.202 5.261 8.086 2.4 1.883 5.538 2.824 9.414 2.824 4.024 0 7.218 -0.941 9.581 -2.824 2.4 -1.884 4.117 -4.578 5.151 -8.086 1.07 -3.507 1.606 -7.698 1.606 -12.571 0 -7.311 -1.218 -13.088 -3.655 -17.334 -2.436 -4.245 -6.627 -6.368 -12.571 -6.368 -3.951 0 -7.145 0.96 -9.581 2.879 -2.4 1.92 -4.154 4.653 -5.262 8.197 -1.07 3.544 -1.606 7.753 -1.606 12.627Zm96.86 -40.372c7.347 0 13.457 0.904 18.33 2.714 4.874 1.772 8.529 4.43 10.966 7.974 2.473 3.544 3.71 7.955 3.71 13.236 0 3.286 -0.554 6.276 -1.662 8.971s-2.695 5.114 -4.763 7.255c-2.03 2.105 -4.467 3.95 -7.31 5.538L440.989 121.519h-24.81l-17.168 -29.462h-5.538V121.519h-21.875V40.554h26.528Zm-0.333 16.558h-4.32V75.609h4.098c3.36 0 6.11 -0.738 8.252 -2.215 2.141 -1.477 3.211 -4.117 3.211 -7.92 0 -2.621 -0.885 -4.67 -2.658 -6.147 -1.772 -1.477 -4.633 -2.215 -8.584 -2.215Zm77.089 -16.559c7.347 0 13.457 0.905 18.331 2.714 4.873 1.773 8.528 4.431 10.965 7.975 2.473 3.544 3.71 7.955 3.71 13.236 0 3.286 -0.554 6.276 -1.662 8.971s-2.695 5.114 -4.763 7.255c-2.03 2.105 -4.467 3.95 -7.31 5.538L517.745 121.519h-24.81l-17.168 -29.462h-5.538V121.519h-21.874V40.554h26.527Zm-0.333 16.559h-4.32V75.609h4.098c3.36 0 6.11 -0.738 8.252 -2.215 2.141 -1.477 3.211 -4.117 3.211 -7.92 0 -2.621 -0.885 -4.67 -2.658 -6.147 -1.772 -1.477 -4.633 -2.215 -8.584 -2.215Zm79.47 13.457 13.956 -30.015h23.703l-26.638 49.343V121.519h-22.041v-30.957l-26.638 -50.007h23.813l13.845 30.015Z" fill="black"/></svg>