<svg version="1.1" id="Layer_1" xmlns="http://www.w3.org/2000/svg" xmlns:xlink="http://www.w3.org/1999/xlink" x="0px" y="0px"
	 width="100%" viewBox="0 0 640 128" enable-background="new 0 0 640 128" xml:space="preserve">
<path fill="transparent" opacity="1.000000" stroke="none" 
	d="
M470.000000,129.000000 
	C313.333374,129.000000 157.166718,129.000000 1.000063,129.000000 
	C1.000042,86.333366 1.000042,43.666737 1.000021,1.000080 
	C214.333252,1.000053 427.666504,1.000053 640.999817,1.000027 
	C640.999878,43.666584 640.999878,86.333168 640.999939,128.999878 
	C584.166687,129.000000 527.333313,129.000000 470.000000,129.000000 
M136.439545,64.107880 
	C140.734131,76.308899 145.028717,88.509918 149.427353,101.006538 
	C151.424606,101.006538 153.450760,100.746231 155.384491,101.058456 
	C160.003754,101.804291 161.925583,99.932732 163.340424,95.448296 
	C167.582596,82.002480 172.459793,68.756752 177.116013,55.442329 
	C177.480194,54.400909 178.052612,53.432316 178.528244,52.429874 
	C178.783768,52.521442 179.039276,52.613007 179.294800,52.704571 
	C179.294800,68.650490 179.294800,84.596413 179.294800,100.747574 
	C184.144409,100.747574 188.700821,100.747574 193.369904,100.747574 
	C193.369904,77.086029 193.369904,53.684368 193.369904,30.283546 
	C186.006348,30.283546 178.927444,30.283546 171.736298,30.283546 
	C166.507614,46.377167 161.352005,62.245838 155.793839,79.353622 
	C149.835541,62.006927 144.328171,45.973045 138.948624,30.311275 
	C131.259079,30.311275 124.171631,30.311275 117.258736,30.311275 
	C117.258736,54.028633 117.258736,77.427139 117.258736,100.865837 
	C122.037399,100.865837 126.501534,100.865837 131.587708,100.865837 
	C131.587708,84.948692 131.587708,69.160393 131.587708,53.372093 
	C131.920044,53.331944 132.252365,53.291794 132.584702,53.251644 
	C133.769592,56.629070 134.954483,60.006493 136.439545,64.107880 
M453.081787,72.614380 
	C450.989319,70.769745 448.896881,68.925102 446.823700,67.097481 
	C455.821686,61.120388 459.135132,53.151428 456.373627,43.955612 
	C453.703461,35.064007 446.056488,30.008184 435.245667,30.001617 
	C424.749420,29.995243 414.253174,30.000235 403.756927,30.000235 
	C401.839966,30.000235 399.923004,30.000235 398.314392,30.000235 
	C398.314392,54.115009 398.314392,77.513657 398.314392,100.788567 
	C403.469696,100.788567 408.261932,100.788567 413.475677,100.788567 
	C413.475677,91.503685 413.475677,82.419502 413.475677,73.001480 
	C419.532837,73.001480 425.171478,72.908951 430.805695,73.027885 
	C436.278625,73.143433 439.656403,75.737213 440.768768,81.030922 
	C441.551422,84.755432 441.735168,88.610008 442.118439,92.413345 
	C442.983582,100.998047 442.966461,100.999771 451.370789,100.999771 
	C453.772217,100.999771 456.173645,100.999771 458.044128,100.999771 
	C457.406311,95.461235 456.995361,90.343117 456.178650,85.290588 
	C455.524780,81.245827 454.377869,77.280762 453.081787,72.614380 
M519.268250,94.000549 
	C520.586365,96.287758 518.267456,100.666000 522.967041,100.946297 
	C527.155945,101.196129 531.371521,100.998787 534.958618,100.998787 
	C534.332092,94.879707 533.679993,89.299049 533.208252,83.703186 
	C532.615845,76.675980 530.873962,70.394852 523.454956,67.487267 
	C523.815369,67.056587 523.977661,66.675964 524.250305,66.564110 
	C531.663391,63.522556 535.212402,55.505543 533.931885,46.071964 
	C532.870728,38.253925 527.095581,31.565033 518.286011,30.981173 
	C503.978485,30.032921 489.562225,30.725576 475.219177,30.725576 
	C475.219177,53.946712 475.219177,77.336845 475.219177,100.728195 
	C480.411041,100.728195 485.332153,100.728195 490.648865,100.728195 
	C490.648865,91.370506 490.648865,82.280319 490.648865,73.000801 
	C496.539978,73.000801 502.030396,72.923592 507.517700,73.021614 
	C513.502441,73.128517 516.752747,75.766235 517.878845,81.724983 
	C518.586304,85.468338 518.762634,89.312057 519.268250,94.000549 
M344.750061,27.996189 
	C323.247009,29.941856 314.160309,44.583633 312.322998,59.400696 
	C308.395355,91.076027 332.420319,109.159119 358.540222,101.083839 
	C373.532837,96.448692 380.231750,84.796677 381.701508,69.911186 
	C383.661804,50.057785 372.890167,27.734909 344.750061,27.996189 
M295.932556,93.323631 
	C305.101562,79.673256 300.206055,65.543915 284.487152,60.668598 
	C277.704285,58.564850 270.793945,56.875336 263.969360,54.901459 
	C260.365021,53.858982 257.614441,52.070534 257.974792,47.586102 
	C258.333130,43.126842 261.279816,41.205597 265.012207,40.291672 
	C274.376617,37.998661 280.832977,41.757038 283.534760,50.784691 
	C288.345276,50.784691 293.137543,50.784691 298.049438,50.784691 
	C297.864380,41.073772 293.452789,34.364178 284.695068,30.843061 
	C275.788666,27.262177 266.610565,26.952049 257.500854,30.114588 
	C248.352524,33.290535 242.816147,40.997646 242.889130,49.970882 
	C242.958969,58.558041 247.836075,64.642792 257.438934,68.004829 
	C259.783722,68.825768 262.198303,69.447426 264.580750,70.160912 
	C269.627258,71.672234 274.741547,72.993446 279.697174,74.759727 
	C283.198120,76.007530 285.653320,78.453903 285.320190,82.642532 
	C284.997345,86.701897 282.466370,88.993919 278.823486,89.928505 
	C268.713745,92.522156 257.726501,91.627335 254.760590,78.000473 
	C250.633301,78.000473 246.472031,77.990791 242.310944,78.013855 
	C241.839828,78.016464 241.369751,78.203430 240.923401,78.299683 
	C240.651123,85.903328 243.315277,91.958900 248.677734,96.283287 
	C260.147369,105.532585 285.592865,105.602531 295.932556,93.323631 
M567.943970,45.540466 
	C564.870056,40.405258 561.796143,35.270050 558.848999,30.346581 
	C553.123596,30.346581 547.596558,30.346581 541.572998,30.346581 
	C549.652222,43.752655 557.541504,56.617546 565.138916,69.652542 
	C566.556213,72.084175 567.362427,75.175110 567.480469,78.002296 
	C567.797363,85.591179 567.588684,93.201996 567.588684,101.002487 
	C570.676270,101.002487 573.167480,101.002487 575.658752,101.002487 
	C578.085266,101.002487 580.511719,101.002487 583.049866,101.002487 
	C583.049866,98.858749 583.230103,97.342773 583.022156,95.882057 
	C580.794800,80.236076 585.346558,66.687561 594.688049,54.110813 
	C600.162109,46.740856 604.342590,38.410046 609.414856,29.997503 
	C604.510193,29.997503 600.359131,30.243090 596.253418,29.917645 
	C593.124939,29.669674 591.496033,30.881723 590.023376,33.486370 
	C585.398804,41.665325 580.536011,49.709602 575.543762,58.182457 
	C572.907532,53.852905 570.578735,50.028278 567.943970,45.540466 
M49.955441,79.499870 
	C49.955441,86.588699 49.955441,93.677536 49.955441,100.711052 
	C55.442165,100.711052 60.359200,100.711052 65.109085,100.711052 
	C65.109085,77.043259 65.109085,53.662842 65.109085,30.308975 
	C59.916672,30.308975 55.020424,30.308975 50.173939,30.308975 
	C50.072361,30.931746 49.975544,31.249058 49.975304,31.566442 
	C49.963459,47.210941 49.959908,62.855442 49.955441,79.499870 
M92.439919,58.021759 
	C100.949722,50.084114 97.065651,39.826958 98.075264,30.314301 
	C93.076180,30.314301 88.549911,30.314301 84.105881,30.314301 
	C84.105881,35.399090 84.105881,40.165302 84.105881,44.967384 
	C86.339821,45.212353 88.362381,45.434143 91.476051,45.775581 
	C89.810860,48.942539 89.151291,52.310467 87.182579,53.486111 
	C83.476013,55.699528 83.582397,58.402321 84.256027,62.263279 
	C86.924797,60.949898 89.400490,59.731537 92.439919,58.021759 
z"/>
<path fill="#050505" opacity="1.000000" stroke="none" 
	d="
M136.289459,63.745899 
	C134.954483,60.006493 133.769592,56.629070 132.584702,53.251644 
	C132.252365,53.291794 131.920044,53.331944 131.587708,53.372093 
	C131.587708,69.160393 131.587708,84.948692 131.587708,100.865837 
	C126.501534,100.865837 122.037399,100.865837 117.258736,100.865837 
	C117.258736,77.427139 117.258736,54.028633 117.258736,30.311275 
	C124.171631,30.311275 131.259079,30.311275 138.948624,30.311275 
	C144.328171,45.973045 149.835541,62.006927 155.793839,79.353622 
	C161.352005,62.245838 166.507614,46.377167 171.736298,30.283546 
	C178.927444,30.283546 186.006348,30.283546 193.369904,30.283546 
	C193.369904,53.684368 193.369904,77.086029 193.369904,100.747574 
	C188.700821,100.747574 184.144409,100.747574 179.294800,100.747574 
	C179.294800,84.596413 179.294800,68.650490 179.294800,52.704571 
	C179.039276,52.613007 178.783768,52.521442 178.528244,52.429874 
	C178.052612,53.432316 177.480194,54.400909 177.116013,55.442329 
	C172.459793,68.756752 167.582596,82.002480 163.340424,95.448296 
	C161.925583,99.932732 160.003754,101.804291 155.384491,101.058456 
	C153.450760,100.746231 151.424606,101.006538 149.427353,101.006538 
	C145.028717,88.509918 140.734131,76.308899 136.289459,63.745899 
z"/>
<path fill="#010101" opacity="1.000000" stroke="none" 
	d="
M453.265808,72.947350 
	C454.377869,77.280762 455.524780,81.245827 456.178650,85.290588 
	C456.995361,90.343117 457.406311,95.461235 458.044128,100.999771 
	C456.173645,100.999771 453.772217,100.999771 451.370789,100.999771 
	C442.966461,100.999771 442.983582,100.998047 442.118439,92.413345 
	C441.735168,88.610008 441.551422,84.755432 440.768768,81.030922 
	C439.656403,75.737213 436.278625,73.143433 430.805695,73.027885 
	C425.171478,72.908951 419.532837,73.001480 413.475677,73.001480 
	C413.475677,82.419502 413.475677,91.503685 413.475677,100.788567 
	C408.261932,100.788567 403.469696,100.788567 398.314392,100.788567 
	C398.314392,77.513657 398.314392,54.115009 398.314392,30.000235 
	C399.923004,30.000235 401.839966,30.000235 403.756927,30.000235 
	C414.253174,30.000235 424.749420,29.995243 435.245667,30.001617 
	C446.056488,30.008184 453.703461,35.064007 456.373627,43.955612 
	C459.135132,53.151428 455.821686,61.120388 446.823700,67.097481 
	C448.896881,68.925102 450.989319,70.769745 453.265808,72.947350 
M440.858124,57.075287 
	C443.077026,48.919754 441.001373,43.060032 434.758759,42.402668 
	C427.785553,41.668373 420.675507,42.234215 413.749023,42.234215 
	C413.749023,49.084747 413.749023,55.458893 413.749023,62.008095 
	C420.254578,62.008095 426.440125,62.435520 432.518921,61.815720 
	C435.281525,61.534042 437.832733,59.179001 440.858124,57.075287 
z"/>
<path fill="#010101" opacity="1.000000" stroke="none" 
	d="
M519.222778,93.555649 
	C518.762634,89.312057 518.586304,85.468338 517.878845,81.724983 
	C516.752747,75.766235 513.502441,73.128517 507.517700,73.021614 
	C502.030396,72.923592 496.539978,73.000801 490.648865,73.000801 
	C490.648865,82.280319 490.648865,91.370506 490.648865,100.728195 
	C485.332153,100.728195 480.411041,100.728195 475.219177,100.728195 
	C475.219177,77.336845 475.219177,53.946712 475.219177,30.725576 
	C489.562225,30.725576 503.978485,30.032921 518.286011,30.981173 
	C527.095581,31.565033 532.870728,38.253925 533.931885,46.071964 
	C535.212402,55.505543 531.663391,63.522556 524.250305,66.564110 
	C523.977661,66.675964 523.815369,67.056587 523.454956,67.487267 
	C530.873962,70.394852 532.615845,76.675980 533.208252,83.703186 
	C533.679993,89.299049 534.332092,94.879707 534.958618,100.998787 
	C531.371521,100.998787 527.155945,101.196129 522.967041,100.946297 
	C518.267456,100.666000 520.586365,96.287758 519.222778,93.555649 
M490.384644,44.850834 
	C490.384644,50.449360 490.384644,56.047886 490.384644,62.007397 
	C497.145538,62.007397 503.421692,62.154751 509.687561,61.964615 
	C515.572693,61.786026 518.872009,57.964958 518.817444,51.883732 
	C518.762024,45.702881 515.578613,42.211525 509.489929,42.025421 
	C504.186371,41.863323 498.870148,41.885181 493.568634,42.077068 
	C492.488800,42.116150 491.449585,43.275597 490.384644,44.850834 
z"/>
<path fill="#030303" opacity="1.000000" stroke="none" 
	d="
M345.199829,27.995966 
	C372.890167,27.734909 383.661804,50.057785 381.701508,69.911186 
	C380.231750,84.796677 373.532837,96.448692 358.540222,101.083839 
	C332.420319,109.159119 308.395355,91.076027 312.322998,59.400696 
	C314.160309,44.583633 323.247009,29.941856 345.199829,27.995966 
M347.436340,89.998940 
	C355.795074,90.027618 361.157227,85.658020 364.148926,78.217400 
	C367.102722,70.871155 367.035553,63.280201 365.012787,55.713261 
	C362.495483,46.296570 356.511353,41.190536 348.012512,41.001293 
	C337.986755,40.778046 331.937775,45.167156 328.915344,54.980305 
	C326.593384,62.519176 326.738098,70.073425 329.320465,77.510826 
	C332.143921,85.642624 337.858795,89.697205 347.436340,89.998940 
z"/>
<path fill="#030303" opacity="1.000000" stroke="none" 
	d="
M295.701843,93.606422 
	C285.592865,105.602531 260.147369,105.532585 248.677734,96.283287 
	C243.315277,91.958900 240.651123,85.903328 240.923401,78.299683 
	C241.369751,78.203430 241.839828,78.016464 242.310944,78.013855 
	C246.472031,77.990791 250.633301,78.000473 254.760590,78.000473 
	C257.726501,91.627335 268.713745,92.522156 278.823486,89.928505 
	C282.466370,88.993919 284.997345,86.701897 285.320190,82.642532 
	C285.653320,78.453903 283.198120,76.007530 279.697174,74.759727 
	C274.741547,72.993446 269.627258,71.672234 264.580750,70.160912 
	C262.198303,69.447426 259.783722,68.825768 257.438934,68.004829 
	C247.836075,64.642792 242.958969,58.558041 242.889130,49.970882 
	C242.816147,40.997646 248.352524,33.290535 257.500854,30.114588 
	C266.610565,26.952049 275.788666,27.262177 284.695068,30.843061 
	C293.452789,34.364178 297.864380,41.073772 298.049438,50.784691 
	C293.137543,50.784691 288.345276,50.784691 283.534760,50.784691 
	C280.832977,41.757038 274.376617,37.998661 265.012207,40.291672 
	C261.279816,41.205597 258.333130,43.126842 257.974792,47.586102 
	C257.614441,52.070534 260.365021,53.858982 263.969360,54.901459 
	C270.793945,56.875336 277.704285,58.564850 284.487152,60.668598 
	C300.206055,65.543915 305.101562,79.673256 295.701843,93.606422 
z"/>
<path fill="#030303" opacity="1.000000" stroke="none" 
	d="
M568.096924,45.872063 
	C570.578735,50.028278 572.907532,53.852905 575.543762,58.182457 
	C580.536011,49.709602 585.398804,41.665325 590.023376,33.486370 
	C591.496033,30.881723 593.124939,29.669674 596.253418,29.917645 
	C600.359131,30.243090 604.510193,29.997503 609.414856,29.997503 
	C604.342590,38.410046 600.162109,46.740856 594.688049,54.110813 
	C585.346558,66.687561 580.794800,80.236076 583.022156,95.882057 
	C583.230103,97.342773 583.049866,98.858749 583.049866,101.002487 
	C580.511719,101.002487 578.085266,101.002487 575.658752,101.002487 
	C573.167480,101.002487 570.676270,101.002487 567.588684,101.002487 
	C567.588684,93.201996 567.797363,85.591179 567.480469,78.002296 
	C567.362427,75.175110 566.556213,72.084175 565.138916,69.652542 
	C557.541504,56.617546 549.652222,43.752655 541.572998,30.346581 
	C547.596558,30.346581 553.123596,30.346581 558.848999,30.346581 
	C561.796143,35.270050 564.870056,40.405258 568.096924,45.872063 
z"/>
<path fill="#000000" opacity="1.000000" stroke="none" 
	d="
M49.955441,78.999908 
	C49.959908,62.855442 49.963459,47.210941 49.975304,31.566442 
	C49.975544,31.249058 50.072361,30.931746 50.173939,30.308975 
	C55.020424,30.308975 59.916672,30.308975 65.109085,30.308975 
	C65.109085,53.662842 65.109085,77.043259 65.109085,100.711052 
	C60.359200,100.711052 55.442165,100.711052 49.955441,100.711052 
	C49.955441,93.677536 49.955441,86.588699 49.955441,78.999908 
z"/>
<path fill="#020202" opacity="1.000000" stroke="none" 
	d="
M92.158051,58.267471 
	C89.400490,59.731537 86.924797,60.949898 84.256027,62.263279 
	C83.582397,58.402321 83.476013,55.699528 87.182579,53.486111 
	C89.151291,52.310467 89.810860,48.942539 91.476051,45.775581 
	C88.362381,45.434143 86.339821,45.212353 84.105881,44.967384 
	C84.105881,40.165302 84.105881,35.399090 84.105881,30.314301 
	C88.549911,30.314301 93.076180,30.314301 98.075264,30.314301 
	C97.065651,39.826958 100.949722,50.084114 92.158051,58.267471 
z"/>
<path fill="#F8F8F8" opacity="1.000000" stroke="none" 
	d="
M440.669006,57.419872 
	C437.832733,59.179001 435.281525,61.534042 432.518921,61.815720 
	C426.440125,62.435520 420.254578,62.008095 413.749023,62.008095 
	C413.749023,55.458893 413.749023,49.084747 413.749023,42.234215 
	C420.675507,42.234215 427.785553,41.668373 434.758759,42.402668 
	C441.001373,43.060032 443.077026,48.919754 440.669006,57.419872 
z"/>
<path fill="#F8F8F8" opacity="1.000000" stroke="none" 
	d="
M490.388153,44.384705 
	C491.449585,43.275597 492.488800,42.116150 493.568634,42.077068 
	C498.870148,41.885181 504.186371,41.863323 509.489929,42.025421 
	C515.578613,42.211525 518.762024,45.702881 518.817444,51.883732 
	C518.872009,57.964958 515.572693,61.786026 509.687561,61.964615 
	C503.421692,62.154751 497.145538,62.007397 490.384644,62.007397 
	C490.384644,56.047886 490.384644,50.449360 490.388153,44.384705 
z"/>
<path fill="#FCFCFC" opacity="1.000000" stroke="none" 
	d="
M346.996521,89.998947 
	C337.858795,89.697205 332.143921,85.642624 329.320465,77.510826 
	C326.738098,70.073425 326.593384,62.519176 328.915344,54.980305 
	C331.937775,45.167156 337.986755,40.778046 348.012512,41.001293 
	C356.511353,41.190536 362.495483,46.296570 365.012787,55.713261 
	C367.035553,63.280201 367.102722,70.871155 364.148926,78.217400 
	C361.157227,85.658020 355.795074,90.027618 346.996521,89.998947 
z"/>
</svg>